<svg id="レイヤー_1" data-name="レイヤー 1" xmlns="http://www.w3.org/2000/svg" viewBox="0 0 207.59 47.54"><defs><style>.cls-1,.cls-2{isolation:isolate;}.cls-1{font-size:48px;fill:#231815;font-family:JCfg, PilGi;}.cls-3{fill:none;stroke:#231815;stroke-miterlimit:10;}</style></defs><text class="cls-1" transform="translate(0 37.51)">Videogram</text><g class="cls-2"><path class="cls-3" d="M2.32,15.13l-.7-2.76Q8.28,6,10.9,6c1,0,1.46.83,1.46,2.49a21.12,21.12,0,0,1-.52,3.86C11.5,14,11.2,15.29,11,16.17L8,26.62C7.61,27.93,7.34,29,7.15,30a12,12,0,0,0-.28,2.25,3.46,3.46,0,0,0,.49,1.94,1.46,1.46,0,0,0,1.25.73q2.43,0,5.67-4.27a38.79,38.79,0,0,0,4.78-8.25c.53-1.22,1-2.31,1.26-3.28.22-.69.57-2,1-4a5.68,5.68,0,0,1-.52-2.44A15.1,15.1,0,0,1,21.31,9a7.1,7.1,0,0,1,1.12-2.65A2.7,2.7,0,0,1,24.12,6a1.76,1.76,0,0,1,1.36.4,2.85,2.85,0,0,1,.33,1.67,28.5,28.5,0,0,1-1.22,7.22c.34.4.79.88,1.34,1.43a8.6,8.6,0,0,0,1.19,1.05L25.2,19.63q-.24,0-.66-.42l-.61-.7-.42-.42a52.11,52.11,0,0,1-5.86,12.65,20.64,20.64,0,0,1-5.76,6.05,8.32,8.32,0,0,1-4.41,1.55,3.77,3.77,0,0,1-3.14-1.6,6.53,6.53,0,0,1-1.22-4.08,32,32,0,0,1,1.34-7.83l2.78-9.51a16.57,16.57,0,0,0,.8-3.7A.58.58,0,0,0,8,11.29a.26.26,0,0,0-.09-.14,11.9,11.9,0,0,0-3.05,2Z" transform="translate(-0.5 -0.5)"/><path class="cls-3" d="M39.92,29.34v4a21.87,21.87,0,0,1-4.36,3.33,10.48,10.48,0,0,1-5.06,1.78c-1.16,0-1.93-.81-2.3-2.44a18.59,18.59,0,0,1-.28-3.84,24.52,24.52,0,0,1,.8-5.81,51.94,51.94,0,0,1,2.2-6.85h3.94l-.47,1.41c-1,2.91-1.66,5.23-2.07,7a20.86,20.86,0,0,0-.6,4.55c0,1.5.29,2.25.89,2.25q1.17,0,4.5-2.81C38,31.06,39,30.21,39.92,29.34Zm-4.6-20c1.54,0,2.3.44,2.3,1.31a6.33,6.33,0,0,1-.37,1.9,4,4,0,0,1-.87,1.64,2.63,2.63,0,0,1-1.85.5c-1.19,0-1.78-.39-1.78-1.18a5.75,5.75,0,0,1,.72-2.9A2.13,2.13,0,0,1,35.32,9.32Z" transform="translate(-0.5 -0.5)"/><path class="cls-3" d="M54.81,22.46l4.11-15.8h3.85l-4.85,19q-.75,3.24-1.22,5.4a17.64,17.64,0,0,0-.47,2.81c0,.53.17.79.52.79a4.44,4.44,0,0,0,2-1,28.74,28.74,0,0,0,4.64-4.31v4a32.63,32.63,0,0,1-5,4,7.29,7.29,0,0,1-3.72,1.15,2,2,0,0,1-2-1.45A9.64,9.64,0,0,1,52.29,34q-4.08,4.39-6.61,4.4a4.48,4.48,0,0,1-3.63-2,7.72,7.72,0,0,1-1.52-4.81,12.87,12.87,0,0,1,3.19-8.76c2-2.25,4.09-3.38,6.35-3.38a4.45,4.45,0,0,1,2.41.66A9.61,9.61,0,0,1,54.81,22.46ZM53.09,30l1-4.6A17.12,17.12,0,0,0,52.06,23a2.4,2.4,0,0,0-1.55-.63,5,5,0,0,0-4,2.34,9.65,9.65,0,0,0-1.92,6A7,7,0,0,0,45.26,34,1.94,1.94,0,0,0,47,35.24Q48.87,35.24,53.09,30Z" transform="translate(-0.5 -0.5)"/><path class="cls-3" d="M83.09,29.34v3.94q-7.22,5.19-14,5.2a4.19,4.19,0,0,1-3.77-2A8.46,8.46,0,0,1,64,31.82a14.5,14.5,0,0,1,3-9.07q3-4,7-4,3.75,0,3.75,3.56,0,3.2-3.28,5.58a27.91,27.91,0,0,1-5.63,2.86l-1,.42v.19A5.5,5.5,0,0,0,68.47,34a2.49,2.49,0,0,0,2.39,1.45A12.53,12.53,0,0,0,76.53,34,33,33,0,0,0,83.09,29.34ZM68.42,28.12a16.18,16.18,0,0,0,4.64-2.51,3.89,3.89,0,0,0,1.73-2.83.94.94,0,0,0-1.07-1,4.37,4.37,0,0,0-3.15,1.9A10.23,10.23,0,0,0,68.42,28.12Z" transform="translate(-0.5 -0.5)"/><path class="cls-3" d="M107.32,29.34v4a6.14,6.14,0,0,1-3.89,1.27,5.21,5.21,0,0,1-2.36-.52,8.08,8.08,0,0,1-2.23-1.73q-3.37,6-8.67,6a5.6,5.6,0,0,1-4.41-1.78,7.26,7.26,0,0,1-1.59-5,12.51,12.51,0,0,1,3.07-8.65,10.3,10.3,0,0,1,8.08-3.45l-.18,2.68A7.24,7.24,0,0,0,90,25a10.33,10.33,0,0,0-1.64,6.07q0,4.27,2.77,4.27a4.51,4.51,0,0,0,3.35-1.9A9.32,9.32,0,0,0,96.54,29c-.18-.65-.3-1.14-.35-1.45a8.07,8.07,0,0,1-.07-1,17.59,17.59,0,0,1,.24-2.77,6.85,6.85,0,0,1,.89-2.58h3.14a9.19,9.19,0,0,1,.28,1.62c0,.49,0,.87,0,1.15a18,18,0,0,1-.85,5.3q2.25,2.3,3.75,2.29C104.84,31.49,106.07,30.78,107.32,29.34Z" transform="translate(-0.5 -0.5)"/><path class="cls-3" d="M119.18,37.26l.71-3.38-.71.75a18.76,18.76,0,0,1-3.39,2.91,5.21,5.21,0,0,1-2.7.84,4.45,4.45,0,0,1-3.7-1.92,7.83,7.83,0,0,1-1.46-4.87,13.09,13.09,0,0,1,3-8.39q3-3.7,6.76-3.71a3.8,3.8,0,0,1,2.13.57,14,14,0,0,1,2.47,2.39l.65-2.95h3.83l-3.14,15.24a17.15,17.15,0,0,0,1.78-1.55c2.35-2.19,3.72-3.47,4.13-3.84v4l-6.71,5.39a18.39,18.39,0,0,1-2.18,6.75,4.37,4.37,0,0,1-3.86,2,4.81,4.81,0,0,1-3.26-1.15,3.32,3.32,0,0,1-1.34-2.55,3.84,3.84,0,0,1,1.27-2.67A29.41,29.41,0,0,1,117.87,38Zm1.69-7.92.84-3.84a20.52,20.52,0,0,0-1.5-1.83,3.28,3.28,0,0,0-2.31-1.27,5,5,0,0,0-3.63,1.92,9.36,9.36,0,0,0-2.21,6.52,6.56,6.56,0,0,0,.66,3.14,2,2,0,0,0,1.73,1.22,4.63,4.63,0,0,0,2.67-1.46,16.74,16.74,0,0,0,2.44-2.57l.8-1a2.9,2.9,0,0,0,.47-.7A.33.33,0,0,1,120.87,29.34Zm-2.44,11.44a12.91,12.91,0,0,0-2.13,1.43,1.91,1.91,0,0,0-.87,1.33,1.6,1.6,0,0,0,.29,1,1,1,0,0,0,.89.37c.28,0,.57-.3.86-.91A16,16,0,0,0,118.43,40.78Z" transform="translate(-0.5 -0.5)"/><path class="cls-3" d="M129.4,33.51V29.62q2.63-2.58,3.71-3.8a19.9,19.9,0,0,0,3.14-4.59,5.1,5.1,0,0,1-.66-2.11,6.51,6.51,0,0,1,.31-2.27c.2-.55.69-.82,1.47-.82a5.92,5.92,0,0,1,2.39.28c.31.18.47.62.47,1.31a9,9,0,0,1-.7,2.91,20,20,0,0,1,3.23,1.35,4.32,4.32,0,0,1,2.06,4,10.38,10.38,0,0,1-.65,3.28,37.44,37.44,0,0,0-1.5,4.83c0,.53.25.79.75.79q2.06,0,7.55-5.48v4q-6,5.11-9.47,5.11a2.52,2.52,0,0,1-2.11-1,4.26,4.26,0,0,1-.8-2.67,12.86,12.86,0,0,1,1.22-4.55,13.06,13.06,0,0,0,1.22-4c0-1.41-.81-2.44-2.44-3.1a25.66,25.66,0,0,1-5.3,6.8C132.45,30.71,131.15,31.92,129.4,33.51Z" transform="translate(-0.5 -0.5)"/><path class="cls-3" d="M174.4,29.34v4q-5.43,5-8.53,5a1.9,1.9,0,0,1-1.94-1.09,6.17,6.17,0,0,1-.5-2.57v-.79a22.87,22.87,0,0,1-3.72,3.47,5.27,5.27,0,0,1-2.89,1,4.57,4.57,0,0,1-3.67-2,7.38,7.38,0,0,1-1.58-4.71,13,13,0,0,1,3.19-8.77q3-3.42,6.42-3.42a4.81,4.81,0,0,1,2.56.7,7.47,7.47,0,0,1,2.18,2.25l.8-3h3.89l-2.44,9.89a23.49,23.49,0,0,0-.56,2.49,12.2,12.2,0,0,0-.24,1.83c0,.59.19.88.56.88a5.15,5.15,0,0,0,2.47-1.37A41.5,41.5,0,0,0,174.4,29.34Zm-10.2.56,1.06-4.69a22,22,0,0,0-2.11-2.29,2.46,2.46,0,0,0-1.59-.61q-2.25,0-4.06,2.55a9.73,9.73,0,0,0-1.8,5.74,6.94,6.94,0,0,0,.66,3.26,2,2,0,0,0,1.74,1.24c.94,0,2.06-.68,3.38-2.06C162.39,32,163.3,31,164.2,29.9Z" transform="translate(-0.5 -0.5)"/><path class="cls-3" d="M179,38.24h-3.52c-.12-1-.22-2.32-.3-3.86s-.11-2.54-.11-3a22.35,22.35,0,0,1,.75-5,64,64,0,0,1,2.15-6.9h4.08l-.28.65q-.62,1.68-1,2.79c-.24.73-.48,1.6-.73,2.6a42.18,42.18,0,0,1,5-4.54,5.8,5.8,0,0,1,3.2-1.32,2.4,2.4,0,0,1,1.86,1,5.94,5.94,0,0,1,1,3.7v.8c1.84-1.49,3.08-2.46,3.7-2.91a8.09,8.09,0,0,1,4-1.78,2.77,2.77,0,0,1,2.2,1.17,4.45,4.45,0,0,1,.94,2.86A10.85,10.85,0,0,1,201.4,28a25,25,0,0,0-1.54,5.72,2.06,2.06,0,0,0,.21,1c.14.26.3.4.49.4a5.4,5.4,0,0,0,2.67-1.53,52.53,52.53,0,0,0,4.36-4.19v4a28.41,28.41,0,0,1-4.66,3.85,7.19,7.19,0,0,1-3.68,1.21,2.88,2.88,0,0,1-2.72-1.73,5.22,5.22,0,0,1-.56-2.39,11.85,11.85,0,0,1,.7-3.7,31.07,31.07,0,0,0,1.59-5.72c0-.56-.22-.85-.66-.85s-1.54.75-3.38,2.25c-1,.85-2,1.69-3,2.54l-.7.7c-.1.69-.28,1.64-.54,2.86s-.73,3.15-1.38,5.81h-3.94q1.35-4.92,1.74-6.42a30.57,30.57,0,0,0,1.12-6.52c0-.81-.27-1.22-.81-1.22s-1.44.57-2.79,1.69c-1,.85-2.64,2.31-4.89,4.41v8.15Z" transform="translate(-0.5 -0.5)"/></g></svg>