<svg id="レイヤー_1" data-name="レイヤー 1" xmlns="http://www.w3.org/2000/svg" viewBox="0 0 417.88 85.65"><defs><style>.cls-1{fill:#fff;stroke:#fff;stroke-miterlimit:10;stroke-width:2px;}</style></defs><path class="cls-1" d="M58.54,303.71l-1.42-5.58q13.44-12.87,18.73-12.87,2.94,0,2.94,5a42.22,42.22,0,0,1-1,7.81q-1.05,5.06-1.8,7.71l-6.06,21.1q-1,4-1.61,6.72a23.9,23.9,0,0,0-.56,4.54,6.93,6.93,0,0,0,1,3.93,2.94,2.94,0,0,0,2.51,1.47q4.92,0,11.45-8.61a79.34,79.34,0,0,0,9.65-16.66c1.07-2.46,1.92-4.66,2.55-6.62.44-1.39,1.14-4.07,2.08-8a11.76,11.76,0,0,1-1-4.92,30.22,30.22,0,0,1,1-7.43,14.23,14.23,0,0,1,2.27-5.35c.44-.44,1.58-.66,3.41-.66a3.54,3.54,0,0,1,2.74.8,5.78,5.78,0,0,1,.66,3.36A57.19,57.19,0,0,1,103.48,304q1,1.23,2.7,2.88a16.22,16.22,0,0,0,2.41,2.13l-3.88,3.79c-.31,0-.75-.29-1.32-.86-.07-.06-.47-.53-1.23-1.42l-.85-.85q-5.11,15.52-11.83,25.55Q84,343.45,77.84,347.43,73,350.55,69,350.55a7.62,7.62,0,0,1-6.34-3.22,13.16,13.16,0,0,1-2.46-8.23q0-5.88,2.7-15.81l5.61-19.2a34.19,34.19,0,0,0,1.62-7.48,1.14,1.14,0,0,0-.19-.66c0-.06-.06-.16-.19-.28-.56,0-2.62,1.35-6.15,4.06Z" transform="translate(-56.01 -284.26)"/><path class="cls-1" d="M134.42,332.38v8a44.25,44.25,0,0,1-8.8,6.72q-6,3.6-10.21,3.6c-2.34,0-3.88-1.64-4.64-4.92a37.86,37.86,0,0,1-.57-7.76,50.48,50.48,0,0,1,1.61-11.73,104.34,104.34,0,0,1,4.45-13.82h7.95l-.95,2.84q-2.94,8.81-4.16,14.1a40.82,40.82,0,0,0-1.23,9.18c0,3,.59,4.54,1.79,4.54q2.37,0,9.09-5.68Q131.58,335,134.42,332.38ZM125.15,292q4.64,0,4.64,2.65a13,13,0,0,1-.76,3.83,8.45,8.45,0,0,1-1.75,3.31c-.66.66-1.91,1-3.74,1-2.4,0-3.59-.79-3.59-2.37a11.67,11.67,0,0,1,1.46-5.87Q122.88,292,125.15,292Z" transform="translate(-56.01 -284.26)"/><path class="cls-1" d="M164.48,318.49l8.31-31.89,7.76,0-9.79,38.33q-1.51,6.52-2.46,10.88a35.39,35.39,0,0,0-1,5.68c0,1.07.35,1.6,1,1.6s2.18-.66,4.07-2a59.07,59.07,0,0,0,9.37-8.71v8a67.47,67.47,0,0,1-10.17,8,14.91,14.91,0,0,1-7.52,2.32,4,4,0,0,1-4.07-2.93,19.28,19.28,0,0,1-.67-6q-8.22,8.9-13.34,8.9-4.26,0-7.33-4a15.51,15.51,0,0,1-3.08-9.7,26,26,0,0,1,6.45-17.7q6-6.81,12.81-6.81a9.09,9.09,0,0,1,4.88,1.33A19.46,19.46,0,0,1,164.48,318.49ZM161,333.61l2.08-9.27a33,33,0,0,0-4.16-4.68,4.77,4.77,0,0,0-3.12-1.28q-4.45,0-8,4.73a19.43,19.43,0,0,0-3.88,12.11,14.18,14.18,0,0,0,1.32,6.53c.88,1.7,2,2.55,3.41,2.55Q152.49,344.3,161,333.61Z" transform="translate(-56.01 -284.26)"/><path class="cls-1" d="M221.57,332.38v7.95q-14.56,10.5-28.29,10.5a8.46,8.46,0,0,1-7.62-4.11,17.12,17.12,0,0,1-2.6-9.32,29.21,29.21,0,0,1,6.15-18.31q6.15-8,14.19-8,7.57,0,7.57,7.19,0,6.44-6.62,11.26A56.82,56.82,0,0,1,193,335.31l-2,.86v.37a11.17,11.17,0,0,0,1,5.21,5.06,5.06,0,0,0,4.82,2.93,25.44,25.44,0,0,0,11.45-2.88A66.35,66.35,0,0,0,221.57,332.38ZM192,329.92a32.47,32.47,0,0,0,9.37-5.06q3.5-2.88,3.5-5.73c0-1.38-.72-2.08-2.17-2.08q-3.14,0-6.34,3.84A20.6,20.6,0,0,0,192,329.92Z" transform="translate(-56.01 -284.26)"/><path class="cls-1" d="M270.49,332.38v8a12.45,12.45,0,0,1-7.85,2.56,10.79,10.79,0,0,1-4.78-1,16.6,16.6,0,0,1-4.5-3.5q-6.81,12.21-17.5,12.2-5.69,0-8.9-3.59t-3.21-10.13q0-10.5,6.19-17.45t16.33-7l-.38,5.39q-7.09,1.05-10.41,5.73t-3.31,12.25q0,8.61,5.58,8.61c2.33,0,4.59-1.27,6.77-3.83a18.91,18.91,0,0,0,4.21-9,24.55,24.55,0,0,1-.71-2.93,13.35,13.35,0,0,1-.14-2.08,35.77,35.77,0,0,1,.47-5.58,13.9,13.9,0,0,1,1.8-5.21h6.34a17.51,17.51,0,0,1,.56,3.27c.07,1,.1,1.75.1,2.32a35.84,35.84,0,0,1-1.71,10.69q4.55,4.63,7.57,4.63C265.47,336.73,268,335.28,270.49,332.38Z" transform="translate(-56.01 -284.26)"/><path class="cls-1" d="M294.43,348.37l1.42-6.81-1.42,1.51a38.11,38.11,0,0,1-6.86,5.87,10.4,10.4,0,0,1-5.44,1.7,9,9,0,0,1-7.48-3.88,15.87,15.87,0,0,1-2.93-9.84,26.41,26.41,0,0,1,6-16.93q6-7.49,13.64-7.48a7.7,7.7,0,0,1,4.3,1.14,28.69,28.69,0,0,1,5,4.83l1.32-6h7.73l-6.34,30.75a35.65,35.65,0,0,0,3.6-3.12q7.09-6.61,8.33-7.76v8l-13.54,10.89q-1.69,9.65-4.4,13.62a8.84,8.84,0,0,1-7.8,4,9.78,9.78,0,0,1-6.58-2.32,6.74,6.74,0,0,1-2.69-5.16,7.81,7.81,0,0,1,2.55-5.39q1.43-1.52,9-6.15Zm3.41-16,1.69-7.74a41.69,41.69,0,0,0-3-3.7q-2.39-2.56-4.66-2.56-3.79,0-7.32,3.88-4.47,4.92-4.46,13.15a13.35,13.35,0,0,0,1.32,6.34,4,4,0,0,0,3.5,2.46q2.08,0,5.4-2.93a35.81,35.81,0,0,0,4.92-5.21l1.61-2a5.35,5.35,0,0,0,.94-1.41A.66.66,0,0,1,297.84,332.38Zm-4.93,23.09a27.87,27.87,0,0,0-4.3,2.89c-1.17,1-1.75,1.87-1.75,2.69a3.24,3.24,0,0,0,.57,2,2.09,2.09,0,0,0,1.79.76c.57,0,1.15-.62,1.75-1.85A32.82,32.82,0,0,0,292.91,355.47Z" transform="translate(-56.01 -284.26)"/><path class="cls-1" d="M315.06,340.8V333q5.29-5.2,7.47-7.66a39.88,39.88,0,0,0,6.34-9.28,10.25,10.25,0,0,1-1.32-4.26,13.6,13.6,0,0,1,.61-4.58c.41-1.11,1.4-1.66,3-1.66q3.89,0,4.83.57c.63.38.94,1.26.94,2.65a18.13,18.13,0,0,1-1.42,5.86,39.3,39.3,0,0,1,6.53,2.75q4.17,2.46,4.17,8.13a21.28,21.28,0,0,1-1.33,6.63q-3,8.79-3,9.74c0,1.08.51,1.61,1.52,1.61q4.15,0,15.23-11.07v8q-12,10.32-19.11,10.32a5.13,5.13,0,0,1-4.26-2.08,8.61,8.61,0,0,1-1.61-5.4q0-3.3,2.46-9.18t2.46-8q0-4.26-4.92-6.24-3,6.24-10.69,13.72Q320.36,336,315.06,340.8Z" transform="translate(-56.01 -284.26)"/><path class="cls-1" d="M405.89,332.38v8q-11,10.08-17.22,10.07c-2,0-3.26-.73-3.93-2.2a12.52,12.52,0,0,1-1-5.19v-1.59a45.17,45.17,0,0,1-7.52,7,10.54,10.54,0,0,1-5.82,2q-4.26,0-7.43-4a14.92,14.92,0,0,1-3.17-9.51,26.24,26.24,0,0,1,6.44-17.69q6-6.9,13-6.91a9.77,9.77,0,0,1,5.16,1.42,15,15,0,0,1,4.4,4.54l1.6-6h7.86l-4.92,20q-.66,2.34-1.14,5a25.9,25.9,0,0,0-.47,3.7c0,1.19.38,1.78,1.13,1.78q1.51,0,5-2.77A84.67,84.67,0,0,0,405.89,332.38Zm-20.59,1.15,2.14-9.47a45.87,45.87,0,0,0-4.26-4.64,5,5,0,0,0-3.21-1.23q-4.55,0-8.19,5.16a19.58,19.58,0,0,0-3.64,11.59,14,14,0,0,0,1.33,6.57c.88,1.68,2,2.51,3.5,2.51q2.85,0,6.83-4.16Q382.56,336.74,385.3,333.53Z" transform="translate(-56.01 -284.26)"/><path class="cls-1" d="M415.26,350.36h-7.12q-.36-3.12-.6-7.81t-.23-6a45.08,45.08,0,0,1,1.52-10.19,128.33,128.33,0,0,1,4.35-13.93h8.23l-.57,1.32c-.82,2.26-1.46,4.13-1.94,5.62s-1,3.24-1.46,5.26a83.5,83.5,0,0,1,10.13-9.17q3.72-2.65,6.45-2.65a4.83,4.83,0,0,1,3.77,2.09,12,12,0,0,1,2.07,7.46V324q5.58-4.5,7.48-5.86c3.46-2.4,6.18-3.6,8.13-3.6a5.58,5.58,0,0,1,4.45,2.36,9,9,0,0,1,1.89,5.78,21.74,21.74,0,0,1-1.42,7q-3.12,9.08-3.12,11.54a4,4,0,0,0,.43,1.94q.42.81,1,.81c1.14,0,2.93-1,5.39-3.08a105.82,105.82,0,0,0,8.8-8.47v8a55.31,55.31,0,0,1-9.41,7.76,14.46,14.46,0,0,1-7.43,2.46,5.83,5.83,0,0,1-5.49-3.5,10.71,10.71,0,0,1-1.13-4.82,24,24,0,0,1,1.42-7.48q3.21-9.64,3.21-11.54c0-1.14-.44-1.71-1.34-1.71s-3.1,1.52-6.81,4.55c-2,1.7-4.06,3.4-6,5.11l-1.42,1.42c-.19,1.38-.55,3.31-1.09,5.77s-1.46,6.37-2.79,11.73h-7.95q2.75-9.93,3.53-13,2.25-9.09,2.25-13.15c0-1.64-.55-2.47-1.63-2.47s-2.9,1.14-5.64,3.41q-3.08,2.55-9.86,8.9v16.46Z" transform="translate(-56.01 -284.26)"/></svg>